<svg width="363" height="153" viewBox="0 0 363 153" fill="none" xmlns="http://www.w3.org/2000/svg">
<path d="M297.96 128.315C296.128 128.315 294.485 127.835 293.031 126.875C291.606 125.916 290.486 124.563 289.672 122.819C288.887 121.074 288.494 119.082 288.494 116.842C288.494 114.574 288.887 112.582 289.672 110.866C290.486 109.121 291.606 107.769 293.031 106.809C294.456 105.849 296.07 105.37 297.873 105.37C299.443 105.37 300.868 105.719 302.148 106.416C303.457 107.114 304.46 108.089 305.158 109.339H305.376V97.2994H310.305V127.835H305.769V123.953H305.551C304.707 125.349 303.631 126.425 302.322 127.181C301.043 127.937 299.589 128.315 297.96 128.315ZM299.182 124.04C301.014 124.04 302.497 123.386 303.631 122.077C304.794 120.768 305.376 119.023 305.376 116.842C305.376 114.661 304.794 112.916 303.631 111.608C302.497 110.27 301.014 109.601 299.182 109.601C297.408 109.601 295.997 110.255 294.95 111.564C293.932 112.844 293.423 114.603 293.423 116.842C293.423 119.082 293.932 120.841 294.95 122.121C295.997 123.4 297.408 124.04 299.182 124.04Z" fill="white"/>
<path d="M286.567 123.996V127.835C285.869 127.893 285.258 127.922 284.735 127.922C283.31 127.922 282.234 127.573 281.507 126.875C280.78 126.148 280.416 125.116 280.416 123.778V123.691H280.198C279.355 125.203 278.264 126.352 276.926 127.137C275.589 127.922 274.105 128.315 272.477 128.315C270.383 128.315 268.638 127.719 267.242 126.526C265.875 125.305 265.192 123.705 265.192 121.728C265.192 120.332 265.556 119.096 266.283 118.02C267.01 116.944 268.013 116.115 269.293 115.534C270.601 114.923 272.084 114.617 273.742 114.617H279.631V113.92C279.631 112.465 279.253 111.36 278.497 110.604C277.741 109.819 276.636 109.426 275.182 109.426C272.593 109.426 270.907 110.546 270.121 112.785L265.846 112.175C266.399 110.052 267.475 108.394 269.074 107.202C270.674 105.98 272.739 105.37 275.269 105.37C278.177 105.37 280.431 106.14 282.03 107.682C283.659 109.223 284.473 111.288 284.473 113.876V122.47C284.473 123.022 284.575 123.415 284.778 123.647C284.982 123.88 285.316 123.996 285.782 123.996H286.567ZM273.611 124.171C275.298 124.171 276.723 123.633 277.886 122.557C279.049 121.481 279.631 120.085 279.631 118.369V117.976H274.309C273.059 117.976 272.041 118.267 271.256 118.849C270.47 119.401 270.078 120.201 270.078 121.248C270.078 122.179 270.383 122.906 270.994 123.429C271.634 123.924 272.506 124.171 273.611 124.171Z" fill="white"/>
<path d="M249.369 128.315C247.129 128.315 245.355 127.559 244.047 126.047C242.738 124.505 242.084 122.426 242.084 119.809V105.806H247.057V118.849C247.057 120.477 247.406 121.742 248.104 122.644C248.802 123.546 249.805 123.996 251.114 123.996C252.626 123.996 253.891 123.415 254.909 122.251C255.956 121.059 256.479 119.605 256.479 117.889V105.806H261.452V127.835H256.915V123.953H256.697C254.749 126.861 252.306 128.315 249.369 128.315Z" fill="white"/>
<path d="M232.402 136.56V124.302H232.184C231.486 125.552 230.483 126.541 229.174 127.268C227.895 127.966 226.47 128.315 224.899 128.315C223.096 128.315 221.482 127.835 220.057 126.875C218.632 125.916 217.513 124.563 216.698 122.818C215.913 121.074 215.52 119.082 215.52 116.842C215.52 114.574 215.913 112.582 216.698 110.866C217.513 109.121 218.632 107.769 220.057 106.809C221.511 105.849 223.154 105.37 224.986 105.37C226.586 105.37 228.026 105.733 229.305 106.46C230.614 107.187 231.69 108.234 232.533 109.601H232.751V105.806H237.332V136.56H232.402ZM226.208 124.04C228.04 124.04 229.523 123.386 230.657 122.077C231.821 120.768 232.402 119.023 232.402 116.842C232.402 114.661 231.821 112.916 230.657 111.608C229.523 110.27 228.04 109.601 226.208 109.601C224.434 109.601 223.023 110.255 221.977 111.564C220.959 112.844 220.45 114.603 220.45 116.842C220.45 119.082 220.959 120.841 221.977 122.121C223.023 123.4 224.434 124.04 226.208 124.04Z" fill="white"/>
<path d="M204.153 128.315C201.419 128.315 199.195 127.704 197.479 126.483C195.792 125.261 194.672 123.546 194.12 121.335L198.613 120.681C199.34 123.008 201.187 124.171 204.153 124.171C205.433 124.171 206.436 123.953 207.163 123.516C207.919 123.08 208.297 122.411 208.297 121.51C208.297 120.579 207.876 119.91 207.032 119.503C206.189 119.096 204.909 118.733 203.193 118.413C201.507 118.064 200.125 117.7 199.049 117.322C198.002 116.944 197.101 116.319 196.345 115.446C195.589 114.545 195.21 113.323 195.21 111.782C195.21 109.863 196.01 108.321 197.61 107.158C199.238 105.966 201.318 105.37 203.848 105.37C206.32 105.37 208.326 105.937 209.868 107.071C211.438 108.205 212.47 109.804 212.965 111.869L208.69 112.524C208.428 111.477 207.861 110.691 206.989 110.168C206.116 109.615 205.04 109.339 203.76 109.339C202.655 109.339 201.768 109.543 201.1 109.95C200.431 110.357 200.096 110.968 200.096 111.782C200.096 112.684 200.503 113.323 201.318 113.701C202.132 114.079 203.411 114.443 205.156 114.792C206.843 115.141 208.225 115.504 209.301 115.883C210.377 116.261 211.293 116.9 212.049 117.802C212.834 118.703 213.227 119.939 213.227 121.51C213.227 123.604 212.398 125.261 210.74 126.483C209.111 127.704 206.916 128.315 204.153 128.315Z" fill="white"/>
<path d="M341.53 88.8351C337.633 88.8351 335.684 86.7412 335.684 82.5535V70.7754H331.409V66.8058H335.772L337.691 61.004H340.657V66.8058H346.983V70.7754H340.657V82.1172C340.657 82.9606 340.817 83.5713 341.137 83.9494C341.486 84.3274 342.053 84.5165 342.838 84.5165H347.201V88.8351H341.53Z" fill="white"/>
<path d="M330.441 77.2315C330.441 77.755 330.368 78.3802 330.223 79.1073H314.082C314.286 80.9976 314.911 82.4807 315.958 83.5568C317.034 84.6037 318.445 85.1272 320.19 85.1272C321.353 85.1272 322.385 84.88 323.287 84.3856C324.188 83.8912 324.886 83.1787 325.381 82.2481L329.743 82.8588C329.045 84.8945 327.853 86.4795 326.166 87.6136C324.479 88.7478 322.487 89.3149 320.19 89.3149C318.038 89.3149 316.133 88.8351 314.475 87.8754C312.817 86.8866 311.523 85.5343 310.593 83.8185C309.691 82.0736 309.24 80.0815 309.24 77.8422C309.24 75.603 309.691 73.6254 310.593 71.9096C311.494 70.1647 312.759 68.8124 314.388 67.8527C316.016 66.8639 317.863 66.3696 319.928 66.3696C321.934 66.3696 323.738 66.8349 325.337 67.7655C326.936 68.667 328.187 69.9466 329.089 71.6042C329.99 73.2328 330.441 75.1086 330.441 77.2315ZM319.928 70.4264C318.416 70.4264 317.151 70.8917 316.133 71.8223C315.144 72.7239 314.49 74.0035 314.17 75.6611H325.773C325.511 74.0035 324.857 72.7239 323.81 71.8223C322.792 70.8917 321.498 70.4264 319.928 70.4264Z" fill="white"/>
<path d="M286.137 88.8351V66.8058H290.761V70.6009H290.979C292.87 67.78 295.327 66.3696 298.351 66.3696C300.62 66.3696 302.408 67.1257 303.717 68.6379C305.055 70.1502 305.724 72.215 305.724 74.8323V88.8351H300.751V75.792C300.751 74.1634 300.387 72.9129 299.66 72.0405C298.962 71.1389 297.944 70.6882 296.607 70.6882C295.036 70.6882 293.727 71.2698 292.681 72.4331C291.634 73.5963 291.11 75.0359 291.11 76.7517V88.8351H286.137Z" fill="white"/>
<path d="M270.247 88.8351V66.8058H274.784V70.6882H275.002C275.875 69.3795 276.834 68.4053 277.881 67.7655C278.928 67.1257 280.15 66.8058 281.546 66.8058H283.421V71.3425H281.197C279.306 71.3425 277.838 71.8951 276.791 73.0002C275.744 74.1053 275.22 75.603 275.22 77.4933V88.8351H270.247Z" fill="white"/>
<path d="M266.541 77.2315C266.541 77.755 266.468 78.3802 266.323 79.1073H250.182C250.386 80.9976 251.011 82.4807 252.058 83.5568C253.134 84.6037 254.545 85.1272 256.29 85.1272C257.453 85.1272 258.485 84.88 259.387 84.3856C260.288 83.8912 260.986 83.1787 261.481 82.2481L265.843 82.8588C265.145 84.8945 263.953 86.4795 262.266 87.6136C260.579 88.7478 258.587 89.3149 256.29 89.3149C254.138 89.3149 252.233 88.8351 250.575 87.8754C248.917 86.8866 247.623 85.5343 246.693 83.8185C245.791 82.0736 245.34 80.0815 245.34 77.8422C245.34 75.603 245.791 73.6254 246.693 71.9096C247.594 70.1647 248.859 68.8124 250.488 67.8527C252.116 66.8639 253.963 66.3696 256.028 66.3696C258.035 66.3696 259.838 66.8349 261.437 67.7655C263.037 68.667 264.287 69.9466 265.189 71.6042C266.09 73.2328 266.541 75.1086 266.541 77.2315ZM256.028 70.4264C254.516 70.4264 253.251 70.8917 252.233 71.8223C251.244 72.7239 250.59 74.0035 250.27 75.6611H261.873C261.612 74.0035 260.957 72.7239 259.91 71.8223C258.892 70.8917 257.598 70.4264 256.028 70.4264Z" fill="white"/>
<path d="M237.969 88.8351C234.072 88.8351 232.124 86.7412 232.124 82.5535V70.7754H227.849V66.8058H232.211L234.13 61.004H237.097V66.8058H243.422V70.7754H237.097V82.1172C237.097 82.9606 237.257 83.5713 237.577 83.9494C237.926 84.3274 238.493 84.5165 239.278 84.5165H243.64V88.8351H237.969Z" fill="white"/>
<path d="M206.262 88.8351V66.8058H210.886V70.6009H211.104C212.995 67.78 215.452 66.3696 218.477 66.3696C220.745 66.3696 222.533 67.1257 223.842 68.6379C225.18 70.1502 225.849 72.215 225.849 74.8323V88.8351H220.876V75.792C220.876 74.1634 220.512 72.9129 219.785 72.0405C219.087 71.1389 218.069 70.6882 216.732 70.6882C215.161 70.6882 213.853 71.2698 212.806 72.4331C211.759 73.5963 211.235 75.0359 211.235 76.7517V88.8351H206.262Z" fill="white"/>
<path d="M201.056 88.8351H196.214V66.8058H201.056V88.8351ZM201.1 63.2287H196.214V58.6484H201.1V63.2287Z" fill="white"/>
<path d="M342.667 49.8351V27.8058H347.291V31.6009H347.509C349.4 28.78 351.857 27.3696 354.882 27.3696C357.15 27.3696 358.938 28.1257 360.247 29.6379C361.585 31.1502 362.254 33.215 362.254 35.8323V49.8351H357.281V36.792C357.281 35.1634 356.917 33.9129 356.19 33.0405C355.492 32.1389 354.474 31.6882 353.137 31.6882C351.566 31.6882 350.258 32.2698 349.211 33.4331C348.164 34.5963 347.64 36.0359 347.64 37.7517V49.8351H342.667Z" fill="white"/>
<path d="M338.961 38.2315C338.961 38.755 338.888 39.3802 338.743 40.1073H322.602C322.806 41.9976 323.431 43.4807 324.478 44.5568C325.554 45.6037 326.965 46.1272 328.71 46.1272C329.873 46.1272 330.905 45.88 331.807 45.3856C332.708 44.8912 333.406 44.1787 333.901 43.2481L338.263 43.8588C337.565 45.8945 336.373 47.4795 334.686 48.6136C332.999 49.7478 331.007 50.3149 328.71 50.3149C326.558 50.3149 324.653 49.8351 322.995 48.8754C321.337 47.8866 320.043 46.5343 319.113 44.8185C318.211 43.0736 317.76 41.0815 317.76 38.8422C317.76 36.603 318.211 34.6254 319.113 32.9096C320.014 31.1647 321.279 29.8124 322.908 28.8527C324.536 27.8639 326.383 27.3696 328.448 27.3696C330.454 27.3696 332.258 27.8349 333.857 28.7655C335.456 29.667 336.707 30.9466 337.609 32.6042C338.51 34.2328 338.961 36.1086 338.961 38.2315ZM328.448 31.4264C326.936 31.4264 325.671 31.8917 324.653 32.8224C323.664 33.7239 323.01 35.0035 322.69 36.6611H334.293C334.031 35.0035 333.377 33.7239 332.33 32.8224C331.312 31.8917 330.018 31.4264 328.448 31.4264Z" fill="white"/>
<path d="M293.422 58.5595V27.8058H298.046V31.6009H298.264C299.107 30.2341 300.169 29.1872 301.448 28.4601C302.728 27.7331 304.167 27.3696 305.767 27.3696C307.599 27.3696 309.228 27.8494 310.653 28.8091C312.107 29.7688 313.241 31.1211 314.055 32.866C314.869 34.5818 315.277 36.5739 315.277 38.8422C315.277 41.0815 314.869 43.0736 314.055 44.8185C313.241 46.5634 312.121 47.9157 310.696 48.8754C309.271 49.8351 307.657 50.3149 305.854 50.3149C304.284 50.3149 302.859 49.9659 301.579 49.268C300.3 48.5409 299.311 47.5522 298.613 46.3017H298.395V58.5595H293.422ZM304.546 46.0399C306.349 46.0399 307.759 45.4001 308.777 44.1205C309.795 42.841 310.304 41.0815 310.304 38.8422C310.304 36.603 309.78 34.8435 308.733 33.5639C307.715 32.2553 306.319 31.6009 304.546 31.6009C302.713 31.6009 301.23 32.2698 300.096 33.6076C298.962 34.9162 298.395 36.6611 298.395 38.8422C298.395 41.0234 298.962 42.7683 300.096 44.0769C301.23 45.3856 302.713 46.0399 304.546 46.0399Z" fill="white"/>
<path d="M278.822 50.3149C276.699 50.3149 274.823 49.8351 273.195 48.8754C271.566 47.8866 270.286 46.5198 269.356 44.7749C268.454 43.03 268.004 41.0524 268.004 38.8422C268.004 36.603 268.454 34.6254 269.356 32.9096C270.286 31.1647 271.566 29.8124 273.195 28.8527C274.823 27.8639 276.699 27.3696 278.822 27.3696C280.945 27.3696 282.821 27.8639 284.449 28.8527C286.107 29.8124 287.386 31.1647 288.288 32.9096C289.219 34.6254 289.684 36.603 289.684 38.8422C289.684 41.0524 289.219 43.03 288.288 44.7749C287.386 46.5198 286.107 47.8866 284.449 48.8754C282.821 49.8351 280.945 50.3149 278.822 50.3149ZM278.822 46.0399C280.654 46.0399 282.094 45.4001 283.141 44.1205C284.217 42.8119 284.755 41.0524 284.755 38.8422C284.755 36.603 284.217 34.8435 283.141 33.5639C282.094 32.2553 280.654 31.6009 278.822 31.6009C276.99 31.6009 275.55 32.2553 274.503 33.5639C273.456 34.8435 272.933 36.603 272.933 38.8422C272.933 41.0815 273.456 42.841 274.503 44.1205C275.55 45.4001 276.99 46.0399 278.822 46.0399Z" fill="white"/>
<path d="M257.382 38.2315C257.382 38.755 257.309 39.3802 257.164 40.1073H241.024C241.227 41.9976 241.852 43.4807 242.899 44.5568C243.975 45.6037 245.386 46.1272 247.131 46.1272C248.294 46.1272 249.326 45.88 250.228 45.3856C251.129 44.8912 251.827 44.1787 252.322 43.2481L256.684 43.8588C255.986 45.8945 254.794 47.4795 253.107 48.6136C251.42 49.7478 249.428 50.3149 247.131 50.3149C244.979 50.3149 243.074 49.8351 241.416 48.8754C239.758 47.8866 238.464 46.5343 237.534 44.8185C236.632 43.0736 236.181 41.0815 236.181 38.8422C236.181 36.603 236.632 34.6254 237.534 32.9096C238.435 31.1647 239.7 29.8124 241.329 28.8527C242.957 27.8639 244.804 27.3696 246.869 27.3696C248.876 27.3696 250.679 27.8349 252.278 28.7655C253.878 29.667 255.128 30.9466 256.03 32.6042C256.931 34.2328 257.382 36.1086 257.382 38.2315ZM246.869 31.4264C245.357 31.4264 244.092 31.8917 243.074 32.8224C242.085 33.7239 241.431 35.0035 241.111 36.6611H252.714C252.453 35.0035 251.798 33.7239 250.751 32.8224C249.733 31.8917 248.439 31.4264 246.869 31.4264Z" fill="white"/>
<path d="M213.041 49.8351V19.2994H218.014V31.3392H218.232C218.988 30.1178 219.962 29.1581 221.155 28.4601C222.376 27.7331 223.757 27.3696 225.299 27.3696C227.538 27.3696 229.312 28.1257 230.621 29.6379C231.958 31.1502 232.627 33.215 232.627 35.8323V49.8351H227.654V36.792C227.654 35.1634 227.291 33.9129 226.564 33.0405C225.866 32.1389 224.848 31.6882 223.51 31.6882C221.94 31.6882 220.631 32.2698 219.584 33.4331C218.537 34.5963 218.014 36.0359 218.014 37.7517V49.8351H213.041Z" fill="white"/>
<path d="M203.804 49.8351C199.907 49.8351 197.959 47.7412 197.959 43.5535V31.7754H193.684V27.8058H198.046L199.965 22.004H202.932V27.8058H209.257V31.7754H202.932V43.1172C202.932 43.9606 203.092 44.5713 203.411 44.9494C203.76 45.3274 204.328 45.5165 205.113 45.5165H209.475V49.8351H203.804Z" fill="white"/>
<path d="M105.793 103.517L96.7275 93.6262C93.5249 90.552 88.9187 91.8377 85.7671 94.4727C82.7878 97.0632 79.7383 99.6092 76.6249 102.098C67.4062 109.456 58.449 115.655 50.0979 120.581C46.6337 122.841 46.034 125.972 48.4966 128.951L57.5622 138.849C60.4459 141.7 64.5162 142.267 68.1845 140.332C76.5356 135.399 85.4928 129.206 94.7115 121.848C97.8248 119.359 100.881 116.813 103.86 114.223C107.497 110.792 108.256 106.591 105.793 103.517ZM99.4325 109.392C96.4532 111.982 93.4037 114.528 90.284 117.017C81.0716 124.375 72.1144 130.568 63.7634 135.501C63.6485 135.539 63.4954 135.583 63.3742 135.583L54.3213 125.699C54.366 125.603 54.4362 125.476 54.5255 125.412C62.8766 120.486 71.8274 114.287 81.0461 106.929C84.1658 104.44 87.2153 101.894 90.1947 99.3037C90.3031 99.2336 90.469 99.1573 90.5966 99.1254L99.6495 109.01C99.6112 109.131 99.5219 109.29 99.4325 109.392Z" fill="white"/>
<path d="M117.857 61.5536C111.943 68.8287 105.136 76.2565 97.6717 83.5252L102.099 88.3561C107.643 82.9587 112.817 77.4785 117.538 72.0366L126.776 82.1249C122.055 87.5668 116.881 93.047 111.337 98.4444L115.765 103.275C128.773 90.6093 139.765 77.4658 147.568 65.4871L143.14 60.6562C139.816 65.7608 135.918 71.0691 131.523 76.4729L120.071 63.9659L117.857 61.5536Z" fill="white"/>
<path d="M110.323 53.3302C108.798 55.2079 107.216 57.0919 105.576 58.9822L110.004 63.8132C111.643 61.9228 113.226 60.0388 114.75 58.1612L110.323 53.3302Z" fill="white"/>
<path d="M8.77628 97.4706C3.46833 107.158 -1.18251 116.642 0.27845 126.138C1.63734 127.621 3.44919 129.607 4.81445 131.09C4.46995 128.105 4.19562 125.75 5.40777 120.626C6.93253 122.294 8.96767 124.521 10.4924 126.189C11.258 127.023 12.2724 128.137 13.038 128.97C14.5627 130.638 16.5979 132.866 18.1226 134.533C18.3268 134.756 18.5947 135.055 18.7989 135.272C19.1817 133.979 19.6538 132.242 20.1003 130.969C15.6345 126.087 11.1687 121.199 6.70286 116.317C8.35522 112.103 9.66306 108.781 13.2995 102.422C11.9406 100.933 10.1288 98.9536 8.7699 97.4642L8.77628 97.4706Z" fill="white"/>
<path d="M60.9244 66.27C54.2511 58.9589 50.6126 55.1633 50.0086 54.8832C47.1696 53.5721 43.6033 54.4186 40.9302 57.0282C7.92777 91.0803 11.2516 95.0647 15.0922 99.6792C21.7825 107.003 25.3806 110.803 25.8868 111.079C27.6221 112.033 30.1995 112.485 32.611 109.271C37.5872 102.206 44.4072 92.5314 59.4187 77.2939C60.1907 76.5111 60.6755 75.7727 60.9945 75.289C61.3263 74.7862 64.127 70.2735 60.9244 66.27ZM54.8955 72.3357C41.7022 85.9565 36.4006 92.5505 28.0878 104.313C28.0176 104.376 27.9092 104.466 27.8135 104.491C21.5953 97.6849 18.5373 94.1757 18.6394 93.9635C33.4914 72.8895 45.7725 61.8146 45.8299 61.7955C47.3546 63.4631 49.3834 65.6908 50.9082 67.3648C52.1586 68.7332 53.8301 70.5663 55.0805 71.9347C55.0486 72.0684 54.9721 72.2339 54.8955 72.3357Z" fill="white"/>
<path d="M77.7542 25.8276C69.1479 32.0779 63.1637 36.5461 52.669 45.877C54.0279 47.3663 55.8333 49.3458 57.1922 50.8352C63.068 45.6987 67.706 41.638 75.8083 35.5022C77.3331 37.1698 79.3618 39.3975 80.8866 41.0651C82.1945 42.4972 83.9425 44.413 85.2503 45.8451C79.4193 50.3642 74.3856 54.2659 66.6406 61.1781C67.9995 62.6675 69.805 64.647 71.1639 66.1363C85.0271 54.0113 97.0274 44.5467 113.991 34.8403C112.632 33.3573 110.827 31.3714 109.468 29.8884C103.898 33.1281 99.5027 35.6868 91.7258 41.1288C88.5806 37.679 85.429 34.2293 82.2838 30.7795L77.7669 25.8276H77.7542Z" fill="white"/>
<path d="M70.0538 17.3942C68.108 18.8072 65.505 20.6657 63.5783 22.1105C64.9372 23.5999 66.7427 25.5794 68.1016 27.0688C70.041 25.6494 72.6121 23.7399 74.577 22.3524C73.2181 20.863 71.4127 18.8836 70.0538 17.3942Z" fill="white"/>
<path d="M159.772 29.812C159.74 29.7102 159.702 29.602 159.657 29.4938C159.319 28.6091 158.828 28.1699 158.209 27.4507C156.289 25.2166 151.389 19.2845 150.464 18.3043C150.388 18.2216 150.107 17.9097 150.049 17.8779C149.967 17.827 149.864 17.8143 149.807 17.827C149.66 17.8524 149.565 17.967 149.533 18.107C149.488 18.3043 149.488 18.7053 149.475 19.0172C149.463 19.2591 149.469 20.5893 149.252 22.0596C148.372 28.0553 145.641 33.8219 141.009 42.2363C140.946 42.2808 140.85 42.3445 140.78 42.3954C140.11 41.6443 139.217 40.6387 138.547 39.8813C138.56 39.7985 138.585 39.6903 138.604 39.6012C142.572 32.4153 145.143 25.8276 146.024 20.2966C146.247 18.9026 146.356 17.5724 146.362 16.3121C146.362 15.873 146.349 15.4783 146.33 15.1346C146.285 14.4027 145.986 13.7153 145.475 13.187C144.384 12.0477 142.438 10.0237 142.005 9.6354C140.576 8.36242 139.198 7.66865 137.182 7.64319C133.245 7.76413 125.928 7.99962 112.881 14.0208C111.665 14.5809 110.982 14.8482 110.833 14.8228C110.151 14.0781 109.245 13.0852 108.562 12.3405C108.613 12.2577 108.664 12.1432 108.741 12.0986C114.757 9.43172 127.784 3.74153 137.545 4.99541C136.39 3.73516 134.63 1.94027 133.437 0.667298C133.054 0.259946 132.524 0.0180812 131.963 0.00535147C122.138 -0.198324 94.871 5.42185 102.91 15.1601C105.672 18.1898 109.462 22.3269 115.726 19.7364C134.279 11.5067 140.684 12.3659 141.794 12.6396C141.756 13.467 141.679 14.3963 141.539 15.4147C136.716 15.7711 128.371 17.2096 114.361 24.3128C115.72 25.8022 117.532 27.788 118.891 29.271C123.516 27.0306 131.88 22.9762 140.276 21.1558C139.472 23.8354 138.272 26.8969 136.493 30.3085C133.296 36.4633 131.535 39.8494 135.523 45.1004C138.362 48.1938 142.107 52.1973 145.437 47.0672C150.069 39.9322 154.305 28.6091 153.252 24.7329C153.973 25.5157 155.587 26.8651 155.938 27.8707C156.863 32.4535 152.755 42.58 146.234 53.5148L150.266 58.0148C156.742 47.1627 160.244 38.0163 159.951 30.8813C159.938 30.5185 159.874 30.1621 159.766 29.8184L159.772 29.812Z" fill="white"/>
<path d="M40.8983 125.584C32.7833 129.683 25.4529 132.382 19.2837 133.572C19.5517 132.656 19.8324 131.707 20.1003 130.931C15.6345 126.049 11.1687 121.161 6.70286 116.279C8.35522 112.065 9.66306 108.743 13.2995 102.384C11.9406 100.895 10.1288 98.9154 8.7699 97.426C3.46195 107.113 -1.18889 116.597 0.27207 126.093C0.571918 128.028 0.980222 128.938 0.980222 128.938L9.03147 137.334C12.8848 139.504 18.6649 139.657 25.8421 137.945L38.927 152.228C40.3943 151.877 41.9255 151.451 43.5076 150.942L30.4228 136.659C34.9779 135.202 39.9796 133.114 45.3259 130.415L40.8983 125.584ZM6.97081 133.502L6.65182 133.286C5.94367 132.433 4.89739 131.243 4.62306 129.282C4.41891 126.997 4.43805 124.668 5.40777 120.581C6.93253 122.249 8.96767 124.477 10.4924 126.144C11.258 126.978 12.2724 128.092 13.038 128.926C14.3841 130.396 16.1194 132.293 17.5548 133.865C13.3952 134.495 9.82894 134.387 6.97081 133.496V133.502Z" fill="white"/>
</svg>
